<?xml version="1.0" standalone="no"?><svg xmlns="http://www.w3.org/2000/svg" viewBox="0 0 1440 320"><path fill="#0099ff" fill-opacity="0.4" d="M0,224L21.8,240C43.6,256,87,288,131,304C174.5,320,218,320,262,314.7C305.5,309,349,299,393,277.3C436.4,256,480,224,524,186.7C567.3,149,611,107,655,80C698.2,53,742,43,785,42.7C829.1,43,873,53,916,80C960,107,1004,149,1047,144C1090.9,139,1135,85,1178,80C1221.8,75,1265,117,1309,133.3C1352.7,149,1396,139,1418,133.3L1440,128L1440,0L1418.2,0C1396.4,0,1353,0,1309,0C1265.5,0,1222,0,1178,0C1134.5,0,1091,0,1047,0C1003.6,0,960,0,916,0C872.7,0,829,0,785,0C741.8,0,698,0,655,0C610.9,0,567,0,524,0C480,0,436,0,393,0C349.1,0,305,0,262,0C218.2,0,175,0,131,0C87.3,0,44,0,22,0L0,0Z"></path></svg>